<svg xmlns="http://www.w3.org/2000/svg" version="1.0" width="940.000000" height="788.000000" preserveAspectRatio="xMidYMid meet" style=""><rect id="backgroundrect" width="100%" height="100%" x="0" y="0" fill="none" stroke="none"/>


<g class="currentLayer" style=""><title>Layer 1</title><g transform="translate(0,788) scale(0.10000000149011612,-0.10000000149011612) " fill="#ffffff" stroke="none" id="svg_1" class="selected" fill-opacity="1">
<path d="M4044.0410919189453,5821.506854534149 l-340,-310 l-742,0 l-742,0 l3,290 l3,290 l-38,0 l-39,0 l0,-408 l0,-408 l-92,-61 c-51,-33 -108,-68 -125,-77 l-33,-17 l0,486 l0,485 l-40,0 l-40,0 l0,-290 l0,-290 l-43,0 c-40,0 -44,-3 -89,-62 c-130,-176 -769,-1051 -806,-1106 l-42,-62 l957,0 l958,0 l740,666 c407,367 774,698 816,735 l77,69 l818,-737 l818,-737 l1310,-7 c1182,-7 1426,-6 1426,8 c0,2 -16,25 -36,51 c-35,46 -36,48 -29,112 c4,36 11,72 15,80 c4,8 11,42 15,75 c31,278 35,297 77,353 c22,28 43,52 47,52 c3,0 26,20 51,43 c146,141 157,174 92,281 c-56,95 -145,192 -200,220 c-26,13 -74,31 -107,40 c-33,10 -78,24 -100,31 c-22,8 -65,17 -95,21 c-51,6 -59,11 -125,79 c-39,40 -81,75 -92,79 c-36,11 -92,-19 -108,-58 c-23,-55 -19,-103 9,-121 c13,-9 29,-29 36,-45 c6,-16 23,-37 36,-47 c13,-10 24,-23 24,-29 c0,-18 -89,-91 -138,-114 c-23,-11 -61,-34 -84,-50 c-23,-17 -46,-30 -52,-30 c-6,0 -27,22 -46,47 c-19,26 -45,57 -56,70 c-12,13 -32,39 -45,58 l-24,35 l-1376,0 l-1376,0 l-124,112 c-68,62 -222,202 -341,310 c-120,109 -219,198 -220,198 c-2,0 -156,-140 -343,-310 zm4501,-515 c30,-14 61,-25 69,-25 c11,0 15,-12 15,-40 c0,-43 -14,-72 -65,-131 c-91,-107 -85,-94 -106,-261 c-13,-109 -21,-117 -68,-70 c-25,24 -321,408 -321,416 c0,1 27,3 60,3 c33,1 67,6 74,13 c8,6 20,10 28,9 c30,-6 89,21 142,65 c67,54 92,57 172,21 zm38,-657 c3,-18 8,-57 11,-87 c5,-49 4,-53 -10,-41 c-22,18 -85,106 -85,119 c0,11 47,40 67,41 c7,0 14,-15 17,-32 z" id="svg_2" fill="#ffffff" fill-opacity="1"/>
<path d="M1609.0410919189453,6031.506854534149 c0,-56 -5,-54 99,-44 l61,7 l0,43 l0,44 l-80,0 l-80,0 l0,-50 z" id="svg_3" fill="#ffffff" fill-opacity="1"/>
<path d="M2269.0410919189453,6036.506854534149 c0,-42 2,-45 28,-45 c15,0 51,-3 80,-6 l52,-7 l0,52 l0,51 l-80,0 l-80,0 l0,-45 z" id="svg_4" fill="#ffffff" fill-opacity="1"/>
<path d="M1609.0410919189453,5856.506854534149 l0,-35 l80,0 l80,0 l0,35 l0,35 l-80,0 l-80,0 l0,-35 z" id="svg_5" fill="#ffffff" fill-opacity="1"/>
<path d="M2269.0410919189453,5856.506854534149 l0,-35 l80,0 l80,0 l0,35 l0,35 l-80,0 l-80,0 l0,-35 z" id="svg_6" fill="#ffffff" fill-opacity="1"/>
<path d="M1819.0410919189453,3951.506854534149 l0,-320 l40,0 l41,0 l-1,292 c-1,160 -4,304 -7,320 c-5,24 -10,28 -39,28 l-34,0 l0,-320 z" id="svg_7" fill="#ffffff" fill-opacity="1"/>
<path d="M2149.0410919189453,3951.506854534149 l0,-320 l34,0 l33,0 l6,68 c4,37 7,181 7,320 l0,252 l-40,0 l-40,0 l0,-320 z" id="svg_8" fill="#ffffff" fill-opacity="1"/>
<path d="M5039.041091918945,4002.506854534149 c-92,-28 -157,-90 -187,-176 c-16,-45 -18,-95 -18,-465 c0,-415 0,-415 24,-474 c49,-122 149,-186 290,-186 c145,0 242,62 292,186 c24,59 24,59 24,474 c0,381 -2,419 -19,469 c-26,74 -93,141 -165,164 c-55,18 -193,22 -241,8 zm140,-231 c26,0 31,-87 28,-436 c-3,-392 -4,-394 -59,-394 c-58,0 -59,6 -59,418 l0,373 l25,25 c15,15 32,23 41,20 c9,-3 20,-6 24,-6 z" id="svg_9" fill="#ffffff" fill-opacity="1"/>
<path d="M4089.0410919189453,3356.506854534149 l0,-645 l130,0 l130,0 l0,295 l0,295 l60,0 l60,0 l0,-295 l0,-295 l130,0 l130,0 l0,645 l0,645 l-130,0 l-130,0 l0,-230 l0,-230 l-60,0 l-60,0 l0,230 l0,230 l-130,0 l-130,0 l0,-645 z" id="svg_10" fill="#ffffff" fill-opacity="1"/>
<path d="M5909.041091918945,3483.506854534149 c0,-390 -3,-521 -12,-530 c-20,-20 -76,-15 -88,7 c-6,12 -10,92 -10,190 l0,171 l-131,0 l-131,0 l4,-202 c4,-228 13,-262 80,-330 c64,-63 119,-83 233,-83 c89,0 105,3 151,27 c59,31 108,84 138,147 c20,45 21,61 24,584 l3,537 l-131,0 l-130,0 l0,-518 z" id="svg_11" fill="#ffffff" fill-opacity="1"/>
<path d="M6359.041091918945,3989.506854534149 c0,-7 -27,-292 -60,-632 c-33,-341 -60,-626 -60,-633 c0,-10 28,-13 124,-13 l123,0 l6,68 c4,37 7,84 7,105 l0,37 l79,0 l78,0 l7,-46 c3,-26 6,-63 6,-83 c0,-82 -2,-81 131,-81 c102,0 119,2 119,16 c0,18 -106,1141 -115,1222 l-6,52 l-220,0 c-168,0 -219,-3 -219,-12 zm250,-503 c12,-143 24,-284 27,-312 l6,-53 l-56,0 c-31,0 -58,3 -60,8 c-2,4 6,142 19,307 c13,165 23,311 24,325 c1,23 2,23 10,5 c5,-11 18,-137 30,-280 z" id="svg_12" fill="#ffffff" fill-opacity="1"/>
<path d="M6999.041091918945,3356.506854534149 l0,-645 l260,0 l260,0 l0,110 l0,110 l-130,0 l-130,0 l0,535 l0,535 l-130,0 l-130,0 l0,-645 z" id="svg_13" fill="#ffffff" fill-opacity="1"/>
<path d="M7685.041091918945,3979.506854534149 c-3,-13 -30,-291 -61,-618 c-31,-327 -58,-607 -61,-622 l-6,-28 l125,0 c141,0 137,-3 137,83 c0,29 3,69 6,90 l7,38 l76,-3 l76,-3 l9,-102 l8,-103 l125,0 l125,0 l-6,28 c-3,15 -31,305 -63,644 l-58,618 l-217,0 l-218,0 l-4,-22 zm249,-501 c14,-158 25,-303 25,-322 l0,-35 l-55,0 c-46,0 -55,3 -55,18 c0,9 9,148 20,307 c20,277 28,352 36,330 c2,-5 15,-139 29,-298 z" id="svg_14" fill="#ffffff" fill-opacity="1"/>
<path d="M8281.041091918945,3879.506854534149 l3,-123 l78,-3 l77,-3 l0,-519 l0,-520 l130,0 l130,0 l0,520 l0,520 l75,0 l75,0 l0,125 l0,125 l-285,0 l-286,0 l3,-122 z" id="svg_15" fill="#ffffff" fill-opacity="1"/>
<path d="M1907.0410919189453,3546.506854534149 c-248,-68 -456,-330 -558,-702 c-12,-43 -24,-86 -26,-96 c-5,-16 3,-17 112,-15 l117,3 l22,75 c65,224 184,401 316,471 c64,34 193,34 264,-1 c120,-59 236,-225 302,-432 l38,-118 l113,0 c84,0 112,3 112,13 c0,7 -9,46 -20,87 c-102,377 -319,650 -565,715 c-70,18 -162,18 -227,0 z" id="svg_16" fill="#ffffff" fill-opacity="1"/>
<path d="M2065.0410919189453,3152.506854534149 c17,-82 -80,-109 -108,-30 c-5,16 -13,27 -18,24 c-13,-8 -18,-56 -9,-88 c6,-23 5,-37 -6,-54 c-29,-44 -76,-22 -77,36 c-1,17 -3,31 -5,31 c-13,0 -33,-77 -33,-125 c0,-121 94,-215 215,-215 c125,0 214,94 215,225 l0,60 l-18,-34 c-22,-44 -46,-60 -69,-45 c-14,9 -18,26 -19,80 c0,96 -1,99 -30,133 c-32,39 -45,39 -38,2 z" id="svg_17" fill="#ffffff" fill-opacity="1"/>
<path d="M1081.0410919189453,2579.506854534149 l3,-63 l938,-3 l937,-2 l0,65 l0,65 l-940,0 l-941,0 l3,-62 z" id="svg_18" fill="#ffffff" fill-opacity="1"/>
<path d="M779.0410919189453,2436.506854534149 l0,-25 l3940,0 l3940,0 l0,25 l0,25 l-3940,0 l-3940,0 l0,-25 z" id="svg_19" fill="#ffffff" fill-opacity="1"/>
</g></g></svg>