<?xml version="1.0" standalone="no"?>
<!DOCTYPE svg PUBLIC "-//W3C//DTD SVG 20010904//EN"
 "http://www.w3.org/TR/2001/REC-SVG-20010904/DTD/svg10.dtd">
<svg version="1.0" xmlns="http://www.w3.org/2000/svg"
 width="940.000000pt" height="788.000000pt" viewBox="0 0 940.000000 788.000000"
 preserveAspectRatio="xMidYMid meet">
<metadata>
Created by potrace 1.16, written by Peter Selinger 2001-2019
</metadata>
<g transform="translate(0.000000,788.000000) scale(0.100000,-0.100000)"
fill="#000000" stroke="none">
<path d="M3955 5890 l-340 -310 -742 0 -742 0 3 290 3 290 -38 0 -39 0 0 -408
0 -408 -92 -61 c-51 -33 -108 -68 -125 -77 l-33 -17 0 486 0 485 -40 0 -40 0
0 -290 0 -290 -43 0 c-40 0 -44 -3 -89 -62 -130 -176 -769 -1051 -806 -1106
l-42 -62 957 0 958 0 740 666 c407 367 774 698 816 735 l77 69 818 -737 818
-737 1310 -7 c1182 -7 1426 -6 1426 8 0 2 -16 25 -36 51 -35 46 -36 48 -29
112 4 36 11 72 15 80 4 8 11 42 15 75 31 278 35 297 77 353 22 28 43 52 47 52
3 0 26 20 51 43 146 141 157 174 92 281 -56 95 -145 192 -200 220 -26 13 -74
31 -107 40 -33 10 -78 24 -100 31 -22 8 -65 17 -95 21 -51 6 -59 11 -125 79
-39 40 -81 75 -92 79 -36 11 -92 -19 -108 -58 -23 -55 -19 -103 9 -121 13 -9
29 -29 36 -45 6 -16 23 -37 36 -47 13 -10 24 -23 24 -29 0 -18 -89 -91 -138
-114 -23 -11 -61 -34 -84 -50 -23 -17 -46 -30 -52 -30 -6 0 -27 22 -46 47 -19
26 -45 57 -56 70 -12 13 -32 39 -45 58 l-24 35 -1376 0 -1376 0 -124 112 c-68
62 -222 202 -341 310 -120 109 -219 198 -220 198 -2 0 -156 -140 -343 -310z
m4501 -515 c30 -14 61 -25 69 -25 11 0 15 -12 15 -40 0 -43 -14 -72 -65 -131
-91 -107 -85 -94 -106 -261 -13 -109 -21 -117 -68 -70 -25 24 -321 408 -321
416 0 1 27 3 60 3 33 1 67 6 74 13 8 6 20 10 28 9 30 -6 89 21 142 65 67 54
92 57 172 21z"/>
<path d="M1520 6100 c0 -56 -5 -54 99 -44 l61 7 0 43 0 44 -80 0 -80 0 0 -50z"/>
<path d="M2180 6105 c0 -42 2 -45 28 -45 15 0 51 -3 80 -6 l52 -7 0 52 0 51
-80 0 -80 0 0 -45z"/>
<path d="M1730 4020 l0 -320 40 0 41 0 -1 292 c-1 160 -4 304 -7 320 -5 24
-10 28 -39 28 l-34 0 0 -320z"/>
<path d="M2060 4020 l0 -320 34 0 33 0 6 68 c4 37 7 181 7 320 l0 252 -40 0
-40 0 0 -320z"/>
<path d="M1818 3615 c-248 -68 -456 -330 -558 -702 -12 -43 -24 -86 -26 -96
-5 -16 3 -17 112 -15 l117 3 22 75 c65 224 184 401 316 471 64 34 193 34 264
-1 120 -59 236 -225 302 -432 l38 -118 113 0 c84 0 112 3 112 13 0 7 -9 46
-20 87 -102 377 -319 650 -565 715 -70 18 -162 18 -227 0z"/>
<path d="M1976 3221 c17 -82 -80 -109 -108 -30 -5 16 -13 27 -18 24 -13 -8
-18 -56 -9 -88 6 -23 5 -37 -6 -54 -29 -44 -76 -22 -77 36 -1 17 -3 31 -5 31
-13 0 -33 -77 -33 -125 0 -121 94 -215 215 -215 125 0 214 94 215 225 l0 60
-18 -34 c-22 -44 -46 -60 -69 -45 -14 9 -18 26 -19 80 0 96 -1 99 -30 133 -32
39 -45 39 -38 2z"/>
<path d="M992 2648 l3 -63 938 -3 937 -2 0 65 0 65 -940 0 -941 0 3 -62z"/>
<path d="M690 2505 l0 -25 3940 0 3940 0 0 25 0 25 -3940 0 -3940 0 0 -25z"/>
</g>
</svg>
